<?xml version="1.0" encoding="UTF-8" standalone="no"?>
<!-- Created with Inkscape (http://www.inkscape.org/) -->
<svg
   xmlns:dc="http://purl.org/dc/elements/1.1/"
   xmlns:cc="http://web.resource.org/cc/"
   xmlns:rdf="http://www.w3.org/1999/02/22-rdf-syntax-ns#"
   xmlns:svg="http://www.w3.org/2000/svg"
   xmlns="http://www.w3.org/2000/svg"
   xmlns:sodipodi="http://inkscape.sourceforge.net/DTD/sodipodi-0.dtd"
   xmlns:inkscape="http://www.inkscape.org/namespaces/inkscape"
   width="115pt"
   height="115pt"
   id="svg2"
   sodipodi:version="0.32"
   inkscape:version="0.43"
   sodipodi:docbase="/home/fenix/devel/toluaxx/src/doc"
   sodipodi:docname="logo.svg"
   version="1.0"
   inkscape:export-filename="/home/fenix/devel/toluaxx/doc/logo.png"
   inkscape:export-xdpi="70"
   inkscape:export-ydpi="70">
  <defs
     id="defs4" />
  <sodipodi:namedview
     id="base"
     pagecolor="#ffffff"
     bordercolor="#666666"
     borderopacity="1.0"
     inkscape:pageopacity="1"
     inkscape:pageshadow="2"
     inkscape:zoom="2"
     inkscape:cx="123.2459"
     inkscape:cy="48.675085"
     inkscape:document-units="px"
     inkscape:current-layer="layer1"
     inkscape:window-width="1016"
     inkscape:window-height="689"
     inkscape:window-x="0"
     inkscape:window-y="25" />
  <metadata
     id="metadata7">
    <rdf:RDF>
      <cc:Work
         rdf:about="">
        <dc:format>image/svg+xml</dc:format>
        <dc:type
           rdf:resource="http://purl.org/dc/dcmitype/StillImage" />
      </cc:Work>
    </rdf:RDF>
  </metadata>
  <g
     inkscape:label="Layer 1"
     inkscape:groupmode="layer"
     id="layer1">
    <path
       style="opacity:1;color:#000000;fill:#0d00a7;fill-opacity:1;fill-rule:nonzero;stroke:none;stroke-width:0.60000002;stroke-linecap:butt;stroke-linejoin:miter;marker:none;marker-start:none;marker-mid:none;marker-end:none;stroke-miterlimit:4;stroke-dasharray:none;stroke-dashoffset:0;stroke-opacity:1;visibility:visible;display:inline;overflow:visible"
       d="M 227.1875,16.75 C 199.80928,16.923591 177.625,39.206147 177.625,66.625 C 177.625,81.9473 184.55195,95.66268 195.4375,104.8125 C 195.57027,101.91633 195.98123,99.04625 196.625,96.21875 C 197.80469,95.96434 199.33299,95.52931 201.25,94.875 C 201.26122,95.17161 201.6327,95.90669 202.34375,97.03125 C 202.3449,97.03011 202.37212,97.03295 202.375,97.03125 C 202.37961,97.02898 202.39991,97.03409 202.40625,97.03125 C 202.61592,96.94267 203.40339,96.66006 204.78125,96.1875 C 204.85497,96.58737 204.90624,96.94904 204.90625,97.3125 C 204.90624,98.00315 204.69237,98.71055 204.25,99.4375 C 203.89055,100.02819 203.66114,100.44953 203.59375,100.65625 C 203.58943,100.67102 203.59634,100.70626 203.59375,100.71875 C 203.59289,100.72443 203.56293,100.74489 203.5625,100.75 C 203.5625,100.77272 203.58684,100.81535 203.59375,100.84375 C 203.60023,100.86611 203.61463,100.91194 203.625,100.9375 C 203.71442,101.14162 203.93203,101.45188 204.25,101.84375 C 204.62095,102.23566 204.86441,102.57085 204.96875,102.8125 C 204.99698,102.88406 204.99647,102.97361 205,103.03125 C 204.99999,106.81154 204.99999,108.71877 205,108.71875 C 204.99999,109.36021 205.18109,110.24225 205.5,111.375 C 206.53521,111.88539 207.58211,112.37338 208.65625,112.8125 C 208.40516,113.12541 208.25287,113.43534 208.125,113.6875 C 207.18492,113.51372 206.50322,113.24979 206.125,112.9375 C 206.0602,112.88191 205.9848,112.8099 205.9375,112.75 C 205.92742,112.73658 205.91547,112.70113 205.90625,112.6875 C 205.75011,112.21604 205.61481,111.78279 205.5,111.375 C 201.88049,109.59046 198.49664,107.38385 195.4375,104.8125 C 195.403,105.56505 195.40625,106.33656 195.40625,107.09375 C 195.40625,109.42009 195.97655,111.05495 197.15625,112 C 198.11475,112.10906 198.73632,112.27682 199.03125,112.53125 C 199.47363,112.89475 199.71874,113.43439 199.71875,114.125 C 199.71874,114.85199 199.31104,115.63273 198.5,116.46875 C 197.76268,116.90495 197.14111,117.27172 196.625,117.5625 C 196.625,117.99869 196.37988,118.72714 195.9375,119.78125 C 195.61492,120.70361 195.44657,121.30806 195.40625,121.5625 C 195.40409,121.57897 195.40697,121.61194 195.40625,121.625 C 195.40625,121.64545 195.40301,121.69351 195.40625,121.71875 C 195.44657,121.96922 195.61492,122.45709 195.9375,123.125 C 196.37988,123.88833 196.625,124.37056 196.625,124.625 C 197.95215,125.17023 198.93017,125.53701 199.59375,125.71875 C 199.66747,125.93684 199.81005,126.20412 200.03125,126.53125 C 200.27087,126.79705 200.42382,126.99592 200.46875,127.09375 C 200.47019,127.09726 200.4676,127.12173 200.46875,127.125 C 200.76133,126.91311 201.15827,126.78579 201.59375,126.75 C 201.9624,126.71365 202.3701,126.71366 202.8125,126.75 C 203.19958,126.80452 203.41345,126.86137 203.46875,126.875 C 204.05859,126.07533 204.39501,125.04836 204.46875,123.8125 C 204.6162,122.5403 204.70751,121.29837 204.78125,120.0625 C 205.37108,119.62632 205.83006,119.2806 206.125,119.0625 C 208.92676,119.53504 211.1279,120.4153 212.75,121.6875 C 213.2661,122.16004 213.53123,122.79408 213.53125,123.59375 C 213.53123,123.84819 213.53123,124.19392 213.53125,124.59375 C 213.4575,125.02994 213.40623,125.34441 213.40625,125.5625 C 213.40623,126.58027 214.13034,127.18816 215.53125,127.40625 C 215.53123,126.64292 216.22409,126.22894 217.625,126.15625 C 219.8369,126.0472 220.98874,126 221.0625,126 L 221.0625,121.59375 C 221.06247,121.37566 220.72605,120.93554 220.0625,120.28125 C 219.47263,119.62698 219.08493,119.1607 218.9375,118.90625 C 218.86374,118.65182 218.84372,117.82386 218.84375,116.40625 C 218.84375,116.17368 218.83978,115.95224 218.84375,115.75 C 215.31466,115.1317 211.92015,114.13191 208.6875,112.8125 C 208.86629,112.59146 209.10412,112.34479 209.34375,112.09375 C 209.71239,112.16646 210.26267,112.33932 211,112.59375 C 211.66356,112.15758 212.37644,111.20397 213.1875,109.75 C 213.40867,109.31383 213.45994,108.58028 213.3125,107.5625 C 213.0982,106.08358 212.97543,105.21966 212.96875,104.96875 C 212.96873,104.49624 213.21384,102.90859 213.65625,100.21875 C 214.02258,97.99128 214.27339,96.66412 214.4375,96.28125 C 214.44052,96.27468 214.4658,96.25591 214.46875,96.25 C 214.47163,96.24475 214.46594,96.22335 214.46875,96.21875 C 214.47149,96.21481 214.49734,96.19078 214.5,96.1875 C 214.50245,96.18619 214.52887,96.18816 214.53125,96.1875 C 214.89988,96.18753 215.30759,96.25579 215.75,96.4375 C 216.26609,96.61928 216.74509,96.71878 217.1875,96.71875 C 217.70359,96.71878 218.2739,96.59822 218.9375,96.34375 C 219.58031,96.09729 220.07811,95.97648 220.375,95.96875 C 221.44407,98.53818 222.056,99.91259 222.15625,100.09375 C 222.15622,100.23917 221.89109,101.87403 221.375,105 C 220.85886,108.45315 220.50241,110.94212 220.28125,112.46875 C 219.91257,112.72321 219.50486,113.18948 219.0625,113.84375 C 218.93921,114.08684 218.86396,114.71952 218.84375,115.75 C 221.65462,116.24246 224.54876,116.5 227.5,116.5 C 228.89782,116.5 230.28742,116.42547 231.65625,116.3125 C 231.61432,116.35789 231.5756,116.42303 231.53125,116.46875 C 230.79393,116.90495 230.17236,117.27172 229.65625,117.5625 C 229.65625,117.99869 229.44238,118.72714 229,119.78125 C 228.67742,120.70361 228.47782,121.30806 228.4375,121.5625 C 228.43534,121.57897 228.43822,121.61194 228.4375,121.625 C 228.4375,121.64545 228.43426,121.69351 228.4375,121.71875 C 228.47782,121.96922 228.67742,122.45709 229,123.125 C 229.42856,123.86447 229.64286,124.36311 229.65625,124.625 C 230.9834,125.17023 231.99266,125.53701 232.65625,125.71875 C 232.72997,125.93684 232.87255,126.20412 233.09375,126.53125 C 233.3518,126.8175 233.49899,127.03356 233.53125,127.125 C 233.82383,126.91311 234.18952,126.78579 234.625,126.75 C 234.99365,126.71365 235.40135,126.71366 235.84375,126.75 C 236.23083,126.80452 236.47595,126.86137 236.53125,126.875 C 237.12109,126.07533 237.42626,125.04836 237.5,123.8125 C 237.64745,122.5403 237.77,121.29837 237.84375,120.0625 C 238.43358,119.62632 238.86131,119.2806 239.15625,119.0625 C 241.95801,119.53504 244.1904,120.4153 245.8125,121.6875 C 246.3286,122.16004 246.59373,122.79408 246.59375,123.59375 C 246.59373,123.84819 246.59373,124.19392 246.59375,124.59375 C 246.52,125.02994 246.46873,125.34441 246.46875,125.5625 C 246.46873,126.58027 247.16159,127.18816 248.5625,127.40625 C 248.56249,127.19156 248.63919,127.00381 248.75,126.84375 C 249.04242,126.4512 249.70249,126.20736 250.6875,126.15625 C 252.8994,126.0472 254.01999,126 254.09375,126 L 254.09375,121.59375 C 254.09375,121.58012 254.09634,121.54658 254.09375,121.53125 C 254.03735,121.29655 253.69509,120.8742 253.09375,120.28125 C 252.50388,119.62698 252.14743,119.1607 252,118.90625 C 251.92624,118.65182 251.87497,117.82386 251.875,116.40625 C 251.87497,114.98866 251.97751,114.13455 252.125,113.84375 C 252.56736,113.18948 252.94382,112.72321 253.3125,112.46875 C 253.43647,111.61305 253.62711,110.42972 253.84375,108.96875 C 247.31233,113.04265 239.77429,115.63993 231.6875,116.3125 C 232.40032,115.53512 232.74999,114.80655 232.75,114.125 C 232.74999,113.43439 232.53613,112.89475 232.09375,112.53125 C 231.79882,112.27682 231.17725,112.10906 230.21875,112 C 229.03905,111.05495 228.4375,109.42009 228.4375,107.09375 C 228.4375,103.42255 228.84521,99.78096 229.65625,96.21875 C 230.83594,95.96434 232.39549,95.52931 234.3125,94.875 C 234.32375,95.17264 234.69027,95.89986 235.40625,97.03125 C 235.40913,97.02955 235.43289,97.03352 235.4375,97.03125 C 235.60857,96.9546 236.4129,96.67823 237.84375,96.1875 C 237.91747,96.58737 237.96874,96.94904 237.96875,97.3125 C 237.96874,98.00315 237.72362,98.71055 237.28125,99.4375 C 236.9218,100.02819 236.72364,100.44953 236.65625,100.65625 C 236.65193,100.67102 236.62759,100.70626 236.625,100.71875 C 236.62414,100.72443 236.62543,100.74489 236.625,100.75 C 236.625,100.75568 236.62457,100.77521 236.625,100.78125 C 236.65091,100.97295 236.8665,101.33262 237.28125,101.84375 C 237.78123,102.37197 238.04686,102.77598 238.0625,103.03125 C 238.06249,106.81154 238.06249,108.71877 238.0625,108.71875 C 238.06249,109.59114 238.34764,110.90642 238.9375,112.6875 C 238.96054,112.72158 239.00281,112.77975 239.03125,112.8125 C 239.05487,112.83848 239.09793,112.88112 239.125,112.90625 C 239.49516,113.23643 240.1793,113.5069 241.15625,113.6875 C 241.37743,113.25133 241.78514,112.71169 242.375,112.09375 C 242.74364,112.16646 243.29392,112.33932 244.03125,112.59375 C 244.69481,112.15758 245.43894,111.20397 246.25,109.75 C 246.47117,109.31383 246.49119,108.58028 246.34375,107.5625 C 246.12945,106.08358 246.03793,105.21966 246.03125,104.96875 C 246.03123,104.49624 246.24509,102.90859 246.6875,100.21875 C 247.05383,97.99128 247.33589,96.66412 247.5,96.28125 C 247.50302,96.27468 247.49705,96.25591 247.5,96.25 C 247.50288,96.24475 247.52844,96.22335 247.53125,96.21875 C 247.53399,96.21481 247.52859,96.19078 247.53125,96.1875 C 247.53384,96.18487 247.55998,96.18947 247.5625,96.1875 C 247.93113,96.18753 248.33884,96.25579 248.78125,96.4375 C 249.29734,96.61928 249.77634,96.71878 250.21875,96.71875 C 250.73484,96.71878 251.3364,96.59822 252,96.34375 C 252.66355,96.08934 253.14255,95.96878 253.4375,95.96875 C 254.50657,98.53818 255.08725,99.91259 255.1875,100.09375 C 255.19211,100.10056 255.21875,100.0983 255.21875,100.09375 C 255.21872,100.23917 254.95359,101.87403 254.4375,105 C 254.21066,106.51761 254.01361,107.82324 253.84375,108.96875 C 267.96559,100.16042 277.375,84.483265 277.375,66.625 C 277.375,39.098622 255.02637,16.75 227.5,16.75 C 227.39248,16.75 227.29487,16.749319 227.1875,16.75 z "
       id="path1307" />
    <path
       style="opacity:1;color:#000000;fill:#0d00a7;fill-opacity:1;fill-rule:nonzero;stroke:#000000;stroke-width:0.60000002;stroke-linecap:butt;stroke-linejoin:miter;marker:none;marker-start:none;marker-mid:none;marker-end:none;stroke-miterlimit:4;stroke-dasharray:none;stroke-dashoffset:0;stroke-opacity:0.602459;visibility:visible;display:inline;overflow:visible"
       d="M 70.5625,21.9375 C 43.778801,22.786706 22.312499,44.792493 22.3125,71.78125 C 22.3125,91.971547 34.324761,109.37818 51.59375,117.21875 C 51.752172,116.85578 51.942347,116.54444 52.15625,116.28125 C 52.826301,116.16415 53.262576,115.96068 53.46875,115.6875 C 53.778001,115.2972 53.937494,114.74152 53.9375,114 C 53.937495,113.21943 53.660716,112.36638 53.09375,111.46875 C 52.578319,111.0004 52.110796,110.62471 51.75,110.3125 C 51.749997,109.84415 51.621752,109.03806 51.3125,107.90625 C 51.086998,106.91591 50.934435,106.27319 50.90625,106 C 50.903985,105.97347 50.90625,105.92454 50.90625,105.90625 C 50.91405,105.66167 51.062837,105.13772 51.3125,104.34375 C 51.621753,103.52416 51.749998,102.9607 51.75,102.6875 C 52.677764,102.10208 53.379859,101.72639 53.84375,101.53125 C 53.895287,101.29708 54.001617,101.0075 54.15625,100.65625 C 54.336644,100.3489 54.446196,100.12943 54.46875,100.03125 C 54.491475,100.05653 54.538541,100.07081 54.5625,100.09375 C 54.576392,100.10648 54.610705,100.14428 54.625,100.15625 C 54.748218,100.25474 54.910185,100.33159 55.0625,100.375 C 55.116862,100.38918 55.192013,100.39893 55.25,100.40625 C 55.507706,100.44528 55.784485,100.44528 56.09375,100.40625 C 56.319244,100.35747 56.46682,100.33079 56.53125,100.3125 C 56.536082,100.31098 56.559278,100.31372 56.5625,100.3125 C 56.974833,101.17112 57.198448,102.23554 57.25,103.5625 C 57.353076,104.92848 57.448449,106.29804 57.5,107.625 C 57.912332,108.09333 58.20007,108.42208 58.40625,108.65625 C 60.364861,108.14888 61.928547,107.24098 63.0625,105.875 C 63.423284,105.36763 63.593735,104.67111 63.59375,103.8125 C 63.593735,103.5393 63.593735,103.17931 63.59375,102.75 C 63.542192,102.28166 63.531233,101.95292 63.53125,101.71875 C 63.531242,101.12113 63.675865,100.62208 63.96875,100.28125 C 64.209753,100.01446 64.571544,99.821199 65,99.71875 C 64.999994,100.01329 65.061024,100.26998 65.1875,100.46875 C 65.227667,100.52798 65.291868,100.60589 65.34375,100.65625 C 65.588578,100.88066 65.979085,101.02347 66.46875,101.0625 C 68.015012,101.17958 68.792185,101.25 68.84375,101.25 L 68.84375,105.96875 C 68.843748,105.9907 68.847829,106.03643 68.84375,106.0625 C 68.793,106.31862 68.562133,106.7603 68.15625,107.375 C 67.743889,108.0775 67.478068,108.57055 67.375,108.84375 C 67.323438,109.11694 67.312477,110.00914 67.3125,111.53125 C 67.312481,113.05333 67.365645,113.96901 67.46875,114.28125 C 67.748996,114.91788 68.012052,115.40343 68.25,115.6875 C 68.26631,115.70625 68.296392,115.73292 68.3125,115.75 C 68.434037,117.03855 68.626034,118.9957 68.875,121.5625 C 69.964289,121.63367 71.049063,121.65625 72.15625,121.65625 C 72.779894,121.65625 73.413129,121.64774 74.03125,121.625 C 74.031232,121.60261 74.03125,121.5849 74.03125,121.5625 C 74.031248,119.06468 74.425311,117.29597 75.25,116.28125 C 75.920051,116.16415 76.356322,115.96068 76.5625,115.6875 C 76.871751,115.2972 77.031244,114.74152 77.03125,114 C 77.031245,113.21943 76.754466,112.36638 76.1875,111.46875 C 75.672069,111.0004 75.235796,110.62471 74.875,110.3125 C 74.874997,109.84415 74.715502,109.03806 74.40625,107.90625 C 74.180748,106.91591 74.059437,106.27319 74.03125,106 C 74.028985,105.97347 74.03125,105.92454 74.03125,105.90625 C 74.03905,105.66167 74.156587,105.13772 74.40625,104.34375 C 74.715503,103.52416 74.874998,102.9607 74.875,102.6875 C 75.802764,102.10208 76.504863,101.72639 76.96875,101.53125 C 77.020287,101.29708 77.126617,101.0075 77.28125,100.65625 C 77.461644,100.3489 77.539946,100.12943 77.5625,100.03125 C 77.572239,100.04208 77.615034,100.0521 77.625,100.0625 C 77.746404,100.18393 77.908475,100.28407 78.0625,100.34375 C 78.114446,100.3625 78.19443,100.39436 78.25,100.40625 C 78.278087,100.41162 78.314757,100.40259 78.34375,100.40625 C 78.601456,100.44528 78.878235,100.44528 79.1875,100.40625 C 79.435544,100.35259 79.603095,100.32927 79.65625,100.3125 C 80.068583,101.17112 80.292202,102.23554 80.34375,103.5625 C 80.446826,104.92848 80.542195,106.29804 80.59375,107.625 C 81.006082,108.09333 81.32507,108.42208 81.53125,108.65625 C 83.489861,108.14888 85.022294,107.24098 86.15625,105.875 C 86.517034,105.36763 86.687481,104.67111 86.6875,103.8125 C 86.687485,103.5393 86.687481,103.17931 86.6875,102.75 C 86.635942,102.28166 86.624983,101.95292 86.625,101.71875 C 86.624985,100.62596 87.114425,99.952919 88.09375,99.71875 C 88.093744,100.01329 88.154774,100.26998 88.28125,100.46875 C 88.510773,100.8072 88.950418,101.01372 89.5625,101.0625 C 91.108762,101.17958 91.917185,101.25 91.96875,101.25 L 91.96875,105.96875 C 91.968748,105.9907 91.941579,106.03643 91.9375,106.0625 C 91.88675,106.31862 91.655883,106.7603 91.25,107.375 C 90.837639,108.0775 90.603068,108.57055 90.5,108.84375 C 90.448438,109.11694 90.406227,110.00914 90.40625,111.53125 C 90.406231,113.05333 90.459395,113.96901 90.5625,114.28125 C 90.871737,114.98374 91.148515,115.47679 91.40625,115.75 C 91.456205,116.27962 91.522268,116.97318 91.59375,117.71875 C 109.4697,110.13638 122.03125,92.41162 122.03125,71.78125 C 122.03125,44.254872 99.682617,21.9375 72.15625,21.9375 C 71.618626,21.9375 71.09604,21.920584 70.5625,21.9375 z M 91.59375,117.71875 C 89.966335,118.40904 88.304019,119.0144 86.59375,119.53125 C 86.611719,119.93556 86.586006,120.4507 86.53125,121.03125 C 86.376608,122.67041 86.312485,123.60956 86.3125,123.84375 C 86.312485,124.35109 86.471979,126.04939 86.78125,128.9375 C 87.047005,131.41942 87.230236,132.83846 87.34375,133.1875 C 87.347777,133.19878 87.371174,133.21029 87.375,133.21875 C 87.376863,133.22228 87.373188,133.24718 87.375,133.25 C 87.376661,133.25071 87.404639,133.25 87.40625,133.25 C 87.438664,133.24923 87.498031,133.25381 87.53125,133.25 C 87.564671,133.24542 87.622023,133.22637 87.65625,133.21875 C 87.836998,133.17472 88.04704,133.09679 88.25,132.96875 C 88.464213,132.85287 88.678944,132.76582 88.875,132.71875 C 88.998221,132.69131 89.134022,132.68749 89.25,132.6875 C 89.61078,132.68747 90.036097,132.82052 90.5,133.09375 C 90.789917,133.26448 91.029489,133.37347 91.21875,133.4375 C 91.264807,133.45218 91.335234,133.46074 91.375,133.46875 C 91.390403,133.47142 91.423103,133.4984 91.4375,133.5 C 91.451393,133.50107 91.487113,133.5 91.5,133.5 C 92.247353,130.74117 92.648669,129.25701 92.71875,129.0625 C 92.721973,129.05518 92.718749,129.02637 92.71875,129.03125 C 92.707807,128.7831 92.537004,127.03275 92.1875,123.78125 C 91.943262,121.27153 91.743503,119.28069 91.59375,117.71875 z M 86.59375,119.53125 C 86.577895,119.17451 86.541226,118.90702 86.46875,118.6875 C 85.901766,117.12636 85.370122,116.09332 84.90625,115.625 C 84.39081,115.89818 84.007698,116.07818 83.75,116.15625 C 83.337647,115.49276 83.060865,114.93707 82.90625,114.46875 C 82.081556,114.7029 81.581158,115.0629 81.375,115.53125 C 80.962649,117.44361 80.749991,118.84456 80.75,119.78125 C 80.749998,119.78125 80.750001,120.79137 80.75,120.9375 C 82.745443,120.59119 84.68697,120.10748 86.59375,119.53125 z M 80.75,120.9375 C 78.558034,121.31792 76.311082,121.54114 74.03125,121.625 C 74.034453,125.54375 74.311249,129.38445 74.875,133.1875 C 75.69968,133.46067 76.784884,133.95371 78.125,134.65625 C 78.124993,134.34399 78.359566,133.56137 78.875,132.3125 C 78.875805,132.31372 78.904237,132.34192 78.90625,132.34375 C 79.025841,132.42606 79.593493,132.72309 80.59375,133.25 C 80.64528,132.82066 80.656241,132.4215 80.65625,132.03125 C 80.656243,131.28969 80.527997,130.53053 80.21875,129.75 C 79.948144,129.06698 79.78382,128.61113 79.75,128.40625 C 79.748188,128.39284 79.750604,128.35473 79.75,128.34375 C 79.75,128.33765 79.749698,128.31898 79.75,128.3125 C 79.751207,128.29878 79.747584,128.26525 79.75,128.25 C 79.790766,128.03388 79.957808,127.65018 80.21875,127.15625 C 80.57954,126.57081 80.749991,126.14817 80.75,125.875 C 80.749992,122.58622 80.749995,121.56151 80.75,120.9375 z M 68.875,121.5625 C 67.03481,121.44227 65.218045,121.22103 63.4375,120.90625 C 63.434531,120.93979 63.440721,120.9971 63.4375,121.03125 C 63.282858,122.67041 63.218735,123.60956 63.21875,123.84375 C 63.218735,124.35109 63.346979,126.04939 63.65625,128.9375 C 63.922005,131.41942 64.136486,132.83846 64.25,133.1875 C 64.252014,133.19314 64.248037,133.21381 64.25,133.21875 C 64.251863,133.22228 64.279438,133.24718 64.28125,133.25 C 64.305409,133.25 64.350388,133.25172 64.375,133.25 C 64.408018,133.24695 64.466176,133.2561 64.5,133.25 C 64.695646,133.21054 64.93396,133.10898 65.15625,132.96875 C 65.517033,132.77358 65.846976,132.68747 66.15625,132.6875 C 66.51703,132.68747 66.911097,132.82052 67.375,133.09375 C 67.7229,133.29863 68.015794,133.41751 68.21875,133.46875 C 68.243365,133.47435 68.29015,133.4968 68.3125,133.5 C 68.326897,133.5016 68.36161,133.49946 68.375,133.5 C 69.122353,130.74117 69.554919,129.25701 69.625,129.0625 C 69.628223,129.05518 69.624999,129.02637 69.625,129.03125 C 69.614057,128.7831 69.443254,127.03275 69.09375,123.78125 C 69.01657,122.98817 68.942745,122.26093 68.875,121.5625 z M 63.4375,120.90625 C 63.529548,119.8665 63.524781,119.14118 63.375,118.6875 C 62.808016,117.12636 62.276372,116.09332 61.8125,115.625 C 61.29706,115.89818 60.913952,116.07818 60.65625,116.15625 C 60.243897,115.49276 59.967115,114.93707 59.8125,114.46875 C 58.987806,114.7029 58.456162,115.0629 58.25,115.53125 C 57.879528,117.24939 57.693868,118.56942 57.65625,119.5 C 59.536549,120.07131 61.470595,120.55852 63.4375,120.90625 z M 57.65625,119.5 C 55.570209,118.86618 53.554359,118.10892 51.59375,117.21875 C 51.141389,118.25518 50.906248,119.71255 50.90625,121.5625 C 50.906246,125.50431 51.183027,129.36272 51.75,133.1875 C 52.57468,133.46067 53.659884,133.95371 55,134.65625 C 54.999993,134.34613 55.272853,133.57769 55.78125,132.34375 C 55.784471,132.34619 55.808071,132.3407 55.8125,132.34375 C 55.959071,132.43887 56.536789,132.74261 57.5,133.25 C 57.551534,132.82066 57.562491,132.4215 57.5625,132.03125 C 57.562489,131.28969 57.402997,130.53053 57.09375,129.75 C 56.79415,128.9938 56.634355,128.51386 56.625,128.34375 C 56.625,128.33765 56.624698,128.31898 56.625,128.3125 C 56.626207,128.29878 56.653834,128.26525 56.65625,128.25 C 56.697016,128.03388 56.832808,127.65018 57.09375,127.15625 C 57.45454,126.57081 57.656241,126.14817 57.65625,125.875 C 57.656241,121.81606 57.656241,119.78123 57.65625,119.78125 C 57.656249,119.68612 57.651997,119.6052 57.65625,119.5 z "
       id="path5771" />
    <text
       xml:space="preserve"
       style="font-size:82.63639832px;font-style:normal;font-variant:normal;font-weight:normal;font-stretch:normal;text-align:start;line-height:125%;writing-mode:lr-tb;text-anchor:start;fill:#ffffff;fill-opacity:1;stroke:none;stroke-width:0.4000001;stroke-linecap:butt;stroke-linejoin:miter;stroke-miterlimit:4;stroke-dasharray:none;stroke-opacity:1;font-family:Xtraflexidisc"
       x="24.427385"
       y="116.44455"
       id="text1309"
       sodipodi:linespacing="125%"
       transform="scale(1.224922,0.816379)"><tspan
         sodipodi:role="line"
         id="tspan1311"
         x="24.427385"
         y="116.44455"
         style="font-size:82.63639832px;font-style:normal;font-variant:normal;font-weight:normal;font-stretch:normal;text-align:start;line-height:125%;writing-mode:lr-tb;text-anchor:start;fill:#ffffff;fill-opacity:1;stroke:none;stroke-width:0.4000001;stroke-miterlimit:4;stroke-dasharray:none;stroke-opacity:1;font-family:Xtraflexidisc">Lua</tspan></text>
    <path
       sodipodi:type="arc"
       style="opacity:1;color:#000000;fill:#ffffff;fill-opacity:1;fill-rule:nonzero;stroke:#000000;stroke-width:0.60000002;stroke-linecap:butt;stroke-linejoin:miter;marker:none;marker-start:none;marker-mid:none;marker-end:none;stroke-miterlimit:4;stroke-dasharray:none;stroke-dashoffset:0;stroke-opacity:0.602459;visibility:visible;display:inline;overflow:visible"
       id="path3097"
       sodipodi:cx="212.63712"
       sodipodi:cy="334.14374"
       sodipodi:rx="23.738585"
       sodipodi:ry="23.233509"
       d="M 236.3757 334.14374 A 23.738585 23.233509 0 1 1  188.89853,334.14374 A 23.738585 23.233509 0 1 1  236.3757 334.14374 z"
       transform="matrix(0.623913,0,0,0.637466,-39.51855,-161.4918)" />
    <text
       xml:space="preserve"
       style="font-size:13.94473171px;font-style:normal;font-variant:normal;font-weight:normal;font-stretch:normal;text-align:start;line-height:125%;writing-mode:lr-tb;text-anchor:start;fill:#0d00a7;fill-opacity:1;stroke:none;stroke-width:0.4000001;stroke-linecap:butt;stroke-linejoin:miter;stroke-miterlimit:4;stroke-dasharray:none;stroke-opacity:1;font-family:ZeroHour"
       x="95.541229"
       y="49.613422"
       id="text3093"
       sodipodi:linespacing="125%"
       transform="scale(0.848658,1.178331)"><tspan
         sodipodi:role="line"
         id="tspan3095"
         x="95.541229"
         y="49.613422"
         style="font-size:13.94473171px;font-style:normal;font-variant:normal;font-weight:normal;font-stretch:normal;text-align:start;line-height:125%;writing-mode:lr-tb;text-anchor:start;fill:#0d00a7;fill-opacity:1;stroke:none;stroke-width:0.4000001;stroke-miterlimit:4;stroke-dasharray:none;stroke-opacity:1;font-family:ZeroHour">to</tspan></text>
    <path
       sodipodi:type="arc"
       style="opacity:1;color:#000000;fill:none;fill-opacity:1;fill-rule:nonzero;stroke:#000000;stroke-width:1.17983484;stroke-linecap:butt;stroke-linejoin:miter;marker:none;marker-start:none;marker-mid:none;marker-end:none;stroke-miterlimit:4;stroke-dasharray:14.39999934,14.39999934;stroke-dashoffset:0;stroke-opacity:1;visibility:visible;display:inline;overflow:visible"
       id="path3976"
       sodipodi:cx="173.74623"
       sodipodi:cy="369.49905"
       sodipodi:rx="134.3503"
       sodipodi:ry="140.41121"
       d="M 308.09653 369.49905 A 134.3503 140.41121 0 1 1  39.395935,369.49905 A 134.3503 140.41121 0 1 1  308.09653 369.49905 z"
       transform="matrix(0.51989,0,0,0.497449,-18.32899,-111.6771)" />
    <path
       sodipodi:type="arc"
       style="opacity:1;color:#000000;fill:#0d00a7;fill-opacity:1;fill-rule:nonzero;stroke:#000000;stroke-width:0.60000002;stroke-linecap:butt;stroke-linejoin:miter;marker:none;marker-start:none;marker-mid:none;marker-end:none;stroke-miterlimit:4;stroke-dasharray:none;stroke-dashoffset:0;stroke-opacity:0.602459;visibility:visible;display:inline;overflow:visible"
       id="path4851"
       sodipodi:cx="212.63712"
       sodipodi:cy="334.14374"
       sodipodi:rx="23.738585"
       sodipodi:ry="23.233509"
       d="M 236.3757 334.14374 A 23.738585 23.233509 0 1 1  188.89853,334.14374 A 23.738585 23.233509 0 1 1  236.3757 334.14374 z"
       transform="matrix(0.623913,0,0,0.637466,-12.09568,-190.0134)" />
    <text
       xml:space="preserve"
       style="font-size:14.05709553px;font-style:normal;font-variant:normal;font-weight:normal;font-stretch:normal;text-align:start;line-height:125%;writing-mode:lr-tb;text-anchor:start;fill:#ffffff;fill-opacity:1;stroke:none;stroke-width:0.4000001;stroke-linecap:butt;stroke-linejoin:miter;stroke-miterlimit:4;stroke-dasharray:none;stroke-opacity:1;font-family:ZeroHour"
       x="132.93588"
       y="24.791498"
       id="text7525"
       sodipodi:linespacing="125%"
       transform="scale(0.822562,1.215714)"><tspan
         sodipodi:role="line"
         id="tspan7527"
         x="132.93588"
         y="24.791498"
         style="font-size:14.05709553px;font-style:normal;font-variant:normal;font-weight:normal;font-stretch:normal;text-align:start;line-height:125%;writing-mode:lr-tb;text-anchor:start;fill:#ffffff;fill-opacity:1;stroke:none;stroke-width:0.4000001;stroke-miterlimit:4;stroke-dasharray:none;stroke-opacity:1;font-family:ZeroHour">to</tspan></text>
    <path
       sodipodi:type="arc"
       style="opacity:1;color:#000000;fill:#0d00a7;fill-opacity:1;fill-rule:nonzero;stroke:#000000;stroke-width:0.60000002;stroke-linecap:butt;stroke-linejoin:miter;marker:none;marker-start:none;marker-mid:none;marker-end:none;stroke-miterlimit:4;stroke-dasharray:none;stroke-dashoffset:0;stroke-opacity:0.602459;visibility:visible;display:inline;overflow:visible"
       id="path1317"
       sodipodi:cx="301.42856"
       sodipodi:cy="372.36218"
       sodipodi:rx="112.85714"
       sodipodi:ry="111.42857"
       d="M 414.2857 372.36218 A 112.85714 111.42857 0 1 1  188.57142,372.36218 A 112.85714 111.42857 0 1 1  414.2857 372.36218 z"
       transform="matrix(0.441856,0,0,0.447521,-212.188,-98.101)" />
    <text
       xml:space="preserve"
       style="font-size:77.65341949px;font-style:normal;font-variant:normal;font-weight:normal;font-stretch:normal;text-align:start;line-height:125%;writing-mode:lr-tb;text-anchor:start;fill:#ffffff;fill-opacity:1;stroke:none;stroke-width:1px;stroke-linecap:butt;stroke-linejoin:miter;stroke-opacity:1;font-family:Worthless Bum"
       x="-80.24839"
       y="128.15166"
       id="text1319"
       transform="scale(1.424229,0.702134)"
       sodipodi:linespacing="125%"><tspan
         sodipodi:role="line"
         id="tspan1321"
         x="-80.24839"
         y="128.15166">XX</tspan></text>
  </g>
</svg>
